<svg width="19" height="20" viewBox="0 0 19 20" fill="none" xmlns="http://www.w3.org/2000/svg">
<g clip-path="url(#clip0_457_2208)">
<path d="M18.9902 10.1868C18.9902 9.36743 18.9255 8.76949 18.7857 8.14941H9.68945V11.8477H15.0287C14.9211 12.7668 14.3398 14.1509 13.048 15.081L13.0299 15.2048L15.906 17.4967L16.1052 17.5171C17.9352 15.7786 18.9902 13.2208 18.9902 10.1868Z" fill="#4285F4"/>
<path d="M9.68905 19.9312C12.3048 19.9312 14.5008 19.0453 16.1048 17.5173L13.0476 15.0812C12.2295 15.6681 11.1315 16.0777 9.68905 16.0777C7.12706 16.0777 4.9526 14.3393 4.17746 11.9365L4.06385 11.9464L1.07329 14.3271L1.03418 14.439C2.62734 17.6944 5.89983 19.9312 9.68905 19.9312Z" fill="#34A853"/>
<path d="M4.17765 11.9363C3.97312 11.3163 3.85476 10.6518 3.85476 9.96534C3.85476 9.27878 3.97313 8.61443 4.16689 7.99435L4.16147 7.86229L1.13344 5.44336L1.03437 5.49183C0.377746 6.84275 0.000976562 8.35977 0.000976562 9.96534C0.000976562 11.5709 0.377746 13.0879 1.03437 14.4388L4.17765 11.9363Z" fill="#FBBC05"/>
<path d="M9.68905 3.85336C11.5083 3.85336 12.7354 4.66168 13.4352 5.33718L16.1694 2.59107C14.4901 0.985496 12.3048 0 9.68905 0C5.89983 0 2.62734 2.23672 1.03418 5.49214L4.1667 7.99466C4.9526 5.59183 7.12706 3.85336 9.68905 3.85336Z" fill="#EB4335"/>
</g>
<defs>
<clipPath id="clip0_457_2208">
<rect width="19" height="20" fill="white"/>
</clipPath>
</defs>
</svg>
