<svg width="23" height="22" viewBox="0 0 23 22" fill="none" xmlns="http://www.w3.org/2000/svg">
<path d="M20.388 3.49561C19.8772 2.98462 19.2708 2.57926 18.6033 2.3027C17.9359 2.02614 17.2205 1.88379 16.498 1.88379C15.7755 1.88379 15.0601 2.02614 14.3926 2.3027C13.7252 2.57926 13.1187 2.98462 12.608 3.49561L11.548 4.55561L10.488 3.49561C9.45628 2.46392 8.057 1.88432 6.59797 1.88432C5.13894 1.88432 3.73966 2.46392 2.70797 3.49561C1.67628 4.52731 1.09668 5.92658 1.09668 7.38561C1.09668 8.84465 1.67628 10.2439 2.70797 11.2756L3.76797 12.3356L11.548 20.1156L19.328 12.3356L20.388 11.2756C20.899 10.7649 21.3043 10.1584 21.5809 9.49097C21.8574 8.82351 21.9998 8.1081 21.9998 7.38561C21.9998 6.66313 21.8574 5.94772 21.5809 5.28026C21.3043 4.6128 20.899 4.00637 20.388 3.49561Z" stroke="#D9D9D9" stroke-width="2" stroke-linecap="round" stroke-linejoin="round"/>
</svg>
