<svg width="14" height="14" viewBox="0 0 14 14" fill="none" xmlns="http://www.w3.org/2000/svg">
<path d="M1.20248 7.20309C1.15386 7.07212 1.15386 6.92806 1.20248 6.79709C1.67597 5.649 2.47969 4.66736 3.51176 3.97661C4.54383 3.28586 5.75775 2.91711 6.99964 2.91711C8.24153 2.91711 9.45546 3.28586 10.4875 3.97661C11.5196 4.66736 12.3233 5.649 12.7968 6.79709C12.8454 6.92806 12.8454 7.07212 12.7968 7.20309C12.3233 8.35117 11.5196 9.33281 10.4875 10.0236C9.45546 10.7143 8.24153 11.0831 6.99964 11.0831C5.75775 11.0831 4.54383 10.7143 3.51176 10.0236C2.47969 9.33281 1.67597 8.35117 1.20248 7.20309Z" stroke="#888888" stroke-linecap="round" stroke-linejoin="round"/>
<path d="M6.99963 8.75002C7.96613 8.75002 8.74963 7.96652 8.74963 7.00002C8.74963 6.03352 7.96613 5.25002 6.99963 5.25002C6.03314 5.25002 5.24963 6.03352 5.24963 7.00002C5.24963 7.96652 6.03314 8.75002 6.99963 8.75002Z" stroke="#888888" stroke-linecap="round" stroke-linejoin="round"/>
</svg>
