<svg width="40" height="41" viewBox="0 0 40 41" fill="none" xmlns="http://www.w3.org/2000/svg">
<path d="M14.5233 23.833H8.33994C7.99049 23.8332 7.64993 23.9431 7.3664 24.1474C7.08287 24.3517 6.87072 24.6399 6.75994 24.9713L3.41994 34.9713C3.33621 35.2219 3.31322 35.4887 3.35287 35.7498C3.39251 36.011 3.49366 36.259 3.64798 36.4734C3.80229 36.6877 4.00535 36.8624 4.24041 36.9829C4.47547 37.1033 4.7358 37.1662 4.99994 37.1663H34.9999C35.2639 37.1661 35.524 37.1033 35.7589 36.9829C35.9938 36.8625 36.1967 36.688 36.351 36.4738C36.5053 36.2597 36.6065 36.0119 36.6463 35.751C36.6861 35.4901 36.6633 35.2234 36.5799 34.973L33.2466 24.973C33.136 24.641 32.9237 24.3522 32.6399 24.1476C32.356 23.943 32.0149 23.8329 31.6649 23.833H25.4783M29.9998 13.833C29.9998 19.8547 23.5515 26.2147 21.0115 28.4913C20.7209 28.7133 20.3655 28.8335 19.9998 28.8335C19.6342 28.8335 19.2787 28.7133 18.9882 28.4913C16.4498 26.2147 9.99984 19.8547 9.99984 13.833C9.99984 11.1808 11.0534 8.6373 12.9288 6.76194C14.8041 4.88658 17.3477 3.83301 19.9998 3.83301C22.652 3.83301 25.1955 4.88658 27.0709 6.76194C28.9463 8.6373 29.9998 11.1808 29.9998 13.833ZM23.3332 13.833C23.3332 15.674 21.8408 17.1663 19.9998 17.1663C18.1589 17.1663 16.6665 15.674 16.6665 13.833C16.6665 11.9921 18.1589 10.4997 19.9998 10.4997C21.8408 10.4997 23.3332 11.9921 23.3332 13.833Z" stroke="black" stroke-width="2" stroke-linecap="round" stroke-linejoin="round"/>
</svg>
