<svg width="60" height="60" viewBox="0 0 60 60" fill="none" xmlns="http://www.w3.org/2000/svg">
<path d="M25.6699 52.5C26.1087 53.26 26.7399 53.8912 27.5 54.33C28.26 54.7688 29.1222 54.9998 29.9999 54.9998C30.8775 54.9998 31.7397 54.7688 32.4998 54.33C33.2598 53.8912 33.891 53.26 34.3299 52.5M55 20C55 14.25 53 9.25 50 5M10 5C7 9.25 5 14.25 5 20M8.155 38.315C7.82842 38.673 7.61289 39.1181 7.53464 39.5963C7.4564 40.0745 7.5188 40.5651 7.71427 41.0085C7.90974 41.4519 8.22984 41.8289 8.63564 42.0937C9.04144 42.3585 9.51545 42.4996 10 42.5H50C50.4845 42.5002 50.9586 42.3596 51.3647 42.0953C51.7707 41.831 52.0912 41.4544 52.2872 41.0113C52.4832 40.5682 52.5462 40.0777 52.4686 39.5995C52.391 39.1212 52.1761 38.6759 51.85 38.3175C48.525 34.89 45 31.2475 45 20C45 16.0218 43.4197 12.2064 40.6066 9.3934C37.7936 6.58035 33.9783 5 30 5C26.0218 5 22.2064 6.58035 19.3934 9.3934C16.5804 12.2064 15 16.0218 15 20C15 31.2475 11.4725 34.89 8.155 38.315Z" stroke="#CCCCCC" stroke-width="2" stroke-linecap="round" stroke-linejoin="round"/>
</svg>
