<svg width="25" height="22" viewBox="0 0 25 22" fill="none" xmlns="http://www.w3.org/2000/svg">
<path d="M9.2373 6C9.2373 8.07107 10.9162 9.75 12.9873 9.75C15.0584 9.75 16.7373 8.07107 16.7373 6M1.7373 17.0002V5.00024C1.7373 3.60011 1.7373 2.89953 2.00979 2.36475C2.24947 1.89434 2.63165 1.51217 3.10205 1.27248C3.63683 1 4.33742 1 5.73755 1H20.2375C21.6377 1 22.3368 1 22.8716 1.27248C23.342 1.51217 23.7254 1.89434 23.9651 2.36475C24.2373 2.899 24.2373 3.59874 24.2373 4.99614V17.0045C24.2373 18.4019 24.2373 19.1006 23.9651 19.6349C23.7254 20.1053 23.342 20.4881 22.8716 20.7278C22.3373 21 21.6386 21 20.2412 21H5.73344C4.33605 21 3.63631 21 3.10205 20.7278C2.63165 20.4881 2.24947 20.1053 2.00979 19.6349C1.7373 19.1001 1.7373 18.4004 1.7373 17.0002Z" stroke="#FCFCFC" stroke-width="1.5" stroke-linecap="round" stroke-linejoin="round"/>
</svg>
