<svg width="60" height="60" viewBox="0 0 60 60" fill="none" xmlns="http://www.w3.org/2000/svg">
  <path d="M22.5 55C24.9853 55 27 52.9853 27 50.5C27 48.0147 24.9853 46 22.5 46C20.0147 46 18 48.0147 18 50.5C18 52.9853 20.0147 55 22.5 55Z" stroke="#CCCCCC" stroke-width="2.5" stroke-linecap="round" stroke-linejoin="round"/>
  <path d="M47.5 55C49.9853 55 52 52.9853 52 50.5C52 48.0147 49.9853 46 47.5 46C45.0147 46 43 48.0147 43 50.5C43 52.9853 45.0147 55 47.5 55Z" stroke="#CCCCCC" stroke-width="2.5" stroke-linecap="round" stroke-linejoin="round"/>
  <path d="M5.82 9.5H14.5L19.82 36.09C20.0159 37.0223 20.5394 37.8513 21.2889 38.4445C22.0384 39.0376 22.9649 39.3598 23.92 39.35H46.2C47.1551 39.3598 48.0816 39.0376 48.8311 38.4445C49.5806 37.8513 50.1041 37.0223 50.3 36.09L54 19.25H15.5" stroke="#CCCCCC" stroke-width="2.5" stroke-linecap="round" stroke-linejoin="round"/>
  <path d="M30 22.5V32.5" stroke="#CCCCCC" stroke-width="2.5" stroke-linecap="round" stroke-linejoin="round"/>
  <path d="M25 27.5H35" stroke="#CCCCCC" stroke-width="2.5" stroke-linecap="round" stroke-linejoin="round"/>
</svg> 