<svg width="39" height="38" viewBox="0 0 39 38" fill="none" xmlns="http://www.w3.org/2000/svg">
<circle cx="19.7998" cy="19" r="18.5" fill="white" stroke="#EEEEEE"/>
<g clip-path="url(#clip0_1057_19326)">
<path d="M31.0599 18.9997C31.0599 12.7807 26.0184 7.73926 19.7995 7.73926C13.5805 7.73926 8.53906 12.7807 8.53906 18.9997C8.53906 24.6201 12.6568 29.2785 18.04 30.1233V22.2546H15.181V18.9997H18.04V16.5189C18.04 13.6967 19.7211 12.1379 22.2933 12.1379C23.5252 12.1379 24.8139 12.3578 24.8139 12.3578V15.1289H23.394C21.9951 15.1289 21.5589 15.9969 21.5589 16.8874V18.9997H24.6819L24.1827 22.2546H21.5589V30.1233C26.9421 29.2785 31.0599 24.6201 31.0599 18.9997Z" fill="#1877F2"/>
<path d="M24.1834 22.2554L24.6826 19.0005H21.5596V16.8882C21.5596 15.9977 21.9958 15.1297 23.3947 15.1297H24.8146V12.3586C24.8146 12.3586 23.5259 12.1387 22.2939 12.1387C19.7218 12.1387 18.0407 13.6975 18.0407 16.5197V19.0005H15.1816V22.2554H18.0407V30.1241C18.614 30.2141 19.2016 30.2609 19.8002 30.2609C20.3987 30.2609 20.9863 30.2141 21.5596 30.1241V22.2554H24.1834Z" fill="white"/>
</g>
<defs>
<clipPath id="clip0_1057_19326">
<rect width="24" height="24" fill="white" transform="translate(7.7998 7)"/>
</clipPath>
</defs>
</svg>
