<svg width="46" height="42" viewBox="0 0 46 42" fill="none" xmlns="http://www.w3.org/2000/svg">
<path d="M13 11H12.2773C9.86966 11 8.66633 11 7.68994 11.438C6.82926 11.8241 6.09602 12.446 5.57367 13.2314C4.9811 14.1225 4.78189 15.3096 4.38607 17.6846L2.05273 31.6846L2.0518 31.6898C1.5182 34.8913 1.25126 36.493 1.71488 37.7412C2.12193 38.8371 2.90145 39.7555 3.91553 40.3372C5.0711 41 6.6944 41 9.94336 41H36.056C39.305 41 40.9309 41 42.0865 40.3372C43.1005 39.7555 43.8782 38.8371 44.2853 37.7412C44.7487 36.4935 44.4819 34.8926 43.9487 31.6935L43.9466 31.6846L41.6133 17.6846C41.2175 15.3097 41.0193 14.1225 40.4268 13.2314C39.9044 12.446 39.1706 11.8241 38.3099 11.438C37.3335 11 36.131 11 33.7233 11H33M13 11H33M13 11C13 5.47715 17.4772 1 23 1C28.5228 1 33 5.47715 33 11" stroke="#CCCCCC" stroke-opacity="0.8" stroke-width="2" stroke-linecap="round" stroke-linejoin="round"/>
</svg>
