<svg width="23" height="21" viewBox="0 0 23 21" fill="none" xmlns="http://www.w3.org/2000/svg">
<path d="M20.388 2.61183C19.8772 2.10083 19.2708 1.69547 18.6033 1.41891C17.9359 1.14235 17.2205 1 16.498 1C15.7755 1 15.0601 1.14235 14.3926 1.41891C13.7252 1.69547 13.1187 2.10083 12.608 2.61183L11.548 3.67183L10.488 2.61183C9.45628 1.58013 8.057 1.00053 6.59797 1.00053C5.13894 1.00053 3.73966 1.58013 2.70797 2.61183C1.67628 3.64352 1.09668 5.04279 1.09668 6.50183C1.09668 7.96086 1.67628 9.36013 2.70797 10.3918L3.76797 11.4518L11.548 19.2318L19.328 11.4518L20.388 10.3918C20.899 9.88107 21.3043 9.27464 21.5809 8.60718C21.8574 7.93972 21.9998 7.22431 21.9998 6.50183C21.9998 5.77934 21.8574 5.06393 21.5809 4.39647C21.3043 3.72901 20.899 3.12258 20.388 2.61183Z" stroke="#D9D9D9" stroke-width="2" stroke-linecap="round" stroke-linejoin="round"/>
</svg>
