<svg width="39" height="38" viewBox="0 0 39 38" fill="none" xmlns="http://www.w3.org/2000/svg">
<circle cx="19.7998" cy="19" r="18.5" fill="white" stroke="#EEEEEE"/>
<path fill-rule="evenodd" clip-rule="evenodd" d="M13.5474 6.95559C15.1714 6.87381 17.2419 6.8125 19.7998 6.8125C22.3577 6.8125 24.4282 6.87382 26.0522 6.95559C29.2427 7.11625 31.6835 9.55713 31.8442 12.7475C31.926 14.3716 31.9873 16.4421 31.9873 19C31.9873 21.5579 31.926 23.6284 31.8442 25.2525C31.6835 28.4429 29.2427 30.8837 26.0522 31.0444C24.4282 31.1262 22.3577 31.1875 19.7998 31.1875C17.2419 31.1875 15.1714 31.1262 13.5474 31.0444C10.3569 30.8837 7.91606 28.4429 7.7554 25.2524C7.67362 23.6284 7.6123 21.5579 7.6123 19C7.6123 16.4421 7.67362 14.3716 7.7554 12.7475C7.91606 9.55712 10.3569 7.11625 13.5474 6.95559ZM25.7581 11.4167C25.7581 10.8184 26.2431 10.3333 26.8415 10.3333H27.3831C27.9815 10.3333 28.4665 10.8184 28.4665 11.4167C28.4665 12.015 27.9815 12.5 27.3831 12.5H26.8415C26.2431 12.5 25.7581 12.015 25.7581 11.4167ZM19.7998 14.6667C17.4066 14.6667 15.4665 16.6068 15.4665 19C15.4665 21.3932 17.4066 23.3333 19.7998 23.3333C22.1931 23.3333 24.1331 21.3932 24.1331 19C24.1331 16.6068 22.1931 14.6667 19.7998 14.6667ZM13.2998 19C13.2998 15.4102 16.21 12.5 19.7998 12.5C23.3896 12.5 26.2998 15.4102 26.2998 19C26.2998 22.5898 23.3896 25.5 19.7998 25.5C16.21 25.5 13.2998 22.5898 13.2998 19Z" fill="url(#paint0_linear_1057_19331)"/>
<defs>
<linearGradient id="paint0_linear_1057_19331" x1="34.0998" y1="36.3501" x2="1.22118" y2="12.9956" gradientUnits="userSpaceOnUse">
<stop stop-color="#FFD600"/>
<stop offset="1" stop-color="#FF007A"/>
</linearGradient>
</defs>
</svg>
