<svg width="39" height="38" viewBox="0 0 39 38" fill="none" xmlns="http://www.w3.org/2000/svg">
<circle cx="19.7998" cy="19" r="18.5" fill="white" stroke="#EEEEEE"/>
<path fill-rule="evenodd" clip-rule="evenodd" d="M13.8415 5.8125C10.4012 5.8125 7.6123 8.6014 7.6123 12.0417V12.7633C7.6123 12.8042 7.61534 12.8447 7.6213 12.8846C7.92355 22.4922 15.8066 30.1875 25.4873 30.1875H25.7581C29.1984 30.1875 31.9873 27.3986 31.9873 23.9583V23.6502C31.9873 22.6535 31.3805 21.7572 30.4551 21.387L27.1156 20.0512C26.009 19.6086 24.7452 19.868 23.9026 20.7107L22.2361 22.3772C22.1624 22.4508 22.0797 22.4595 22.0293 22.4442C18.8408 21.4759 16.3239 18.959 15.3556 15.7706C15.3403 15.7201 15.349 15.6374 15.4227 15.5637L17.0891 13.8973C17.9318 13.0546 18.1912 11.7908 17.7486 10.6843L16.4128 7.34473C16.0426 6.41932 15.1463 5.8125 14.1496 5.8125H13.8415Z" fill="url(#paint0_linear_1057_19341)"/>
<defs>
<linearGradient id="paint0_linear_1057_19341" x1="31.0508" y1="7.782" x2="3.26976" y2="23.4405" gradientUnits="userSpaceOnUse">
<stop stop-color="#00D078"/>
<stop offset="1" stop-color="#007DF0"/>
</linearGradient>
</defs>
</svg>
