<svg width="39" height="38" viewBox="0 0 39 38" fill="none" xmlns="http://www.w3.org/2000/svg">
<circle cx="19.7998" cy="19" r="18.5" fill="white" stroke="#EEEEEE"/>
<rect x="6.7998" y="6" width="26" height="26" rx="13" fill="#FF0000"/>
<path d="M14.7832 22.0383C15.0278 21.5571 15.1111 20.9962 15.1395 20.6698C15.155 20.4914 15.0964 20.3176 14.9761 20.1853C14.6026 19.7746 14.0665 19.2082 14.2652 17.3914C14.4561 15.645 16.318 13.0745 19.4931 13.1754C22.6681 13.2763 24.1009 15.4612 23.6027 18.7605C23.1726 21.6086 21.2504 22.8692 20.1073 22.5223C18.7103 22.0983 18.7949 21.2709 18.9643 20.6451C20.519 16.5163 19.9253 15.5516 18.7103 15.2641C18.0878 15.1168 16.8052 15.1389 16.1702 17.0158C15.7892 18.1419 16.02 19.4441 16.2972 19.8943C16.2972 19.8943 15.6914 21.92 14.7952 26.0497C14.7807 26.1167 14.7687 26.1849 14.7613 26.253C14.715 26.6767 14.5663 28.3455 14.9161 29.7398C14.9796 29.9931 15.2615 30.0856 15.4527 29.9082C15.8766 29.515 16.5786 28.7055 17.2174 27.2362C17.2633 27.1306 17.3001 27.0212 17.3294 26.9097C17.4721 26.3659 17.9257 24.6263 18.1235 23.742C19.3935 25.8694 25.4739 25.8126 26.6467 19.1491C27.7629 12.807 22.5204 10.846 19.2183 11.0093C15.3292 11.2016 12.269 13.1818 11.8521 17.0158C11.4947 20.3029 13.0372 21.8281 14.3828 22.211C14.5411 22.256 14.7085 22.1853 14.7832 22.0383Z" fill="url(#paint0_linear_1057_19336)"/>
<defs>
<linearGradient id="paint0_linear_1057_19336" x1="14.2519" y1="14.6539" x2="27.543" y2="20.4675" gradientUnits="userSpaceOnUse">
<stop stop-color="white"/>
<stop offset="1" stop-color="white"/>
</linearGradient>
</defs>
</svg>
