<svg width="18" height="18" viewBox="0 0 18 18" fill="none" xmlns="http://www.w3.org/2000/svg">
<g clip-path="url(#clip0_1612_5356)">
<path d="M15.0778 2.62793L14.4598 14.7779C14.4213 15.5473 14.0883 16.2724 13.5298 16.8029C12.9713 17.3335 12.2301 17.6289 11.4598 17.6279H6.67178C5.90145 17.6289 5.16027 17.3335 4.60178 16.8029C4.04329 16.2724 3.71029 15.5473 3.67178 14.7779L3.07178 2.62793" stroke="#767676" stroke-linecap="round" stroke-linejoin="round"/>
<path d="M6.76783 1.50027C6.84628 1.25968 6.99877 1.05005 7.20352 0.90134C7.40826 0.75263 7.65478 0.672452 7.90783 0.672266H10.2418C10.4941 0.672037 10.7401 0.751342 10.9448 0.89891C11.1494 1.04648 11.3024 1.2548 11.3818 1.49427L11.6578 2.32227H6.49183L6.76783 1.50027ZM6.06583 2.92827H16.5718C16.6514 2.92827 16.7277 2.89666 16.784 2.8404C16.8402 2.78414 16.8718 2.70783 16.8718 2.62827C16.8718 2.5487 16.8402 2.47239 16.784 2.41613C16.7277 2.35987 16.6514 2.32827 16.5718 2.32827H12.2878L11.9458 1.30827C11.8275 0.949479 11.5992 0.637037 11.2933 0.415203C10.9875 0.193369 10.6196 0.0733908 10.2418 0.0722656H7.90183C7.52402 0.0733908 7.15614 0.193369 6.85031 0.415203C6.54449 0.637037 6.31621 0.949479 6.19783 1.30827L5.85583 2.32827H1.57783C1.49827 2.32827 1.42196 2.35987 1.3657 2.41613C1.30944 2.47239 1.27783 2.5487 1.27783 2.62827C1.27783 2.70783 1.30944 2.78414 1.3657 2.8404C1.42196 2.89666 1.49827 2.92827 1.57783 2.92827H6.06583Z" fill="#767676"/>
</g>
<defs>
<clipPath id="clip0_1612_5356">
<rect width="18" height="18" fill="white"/>
</clipPath>
</defs>
</svg>
