<?xml version="1.0" encoding="utf-8"?>
<!-- Generator: Adobe Illustrator 27.8.1, SVG Export Plug-In . SVG Version: 6.00 Build 0)  -->
<svg version="1.1" id="Layer_1" xmlns="http://www.w3.org/2000/svg" xmlns:xlink="http://www.w3.org/1999/xlink" x="0px" y="0px"
	 viewBox="0 0 444.08 444.08" style="enable-background:new 0 0 444.08 444.08;" xml:space="preserve">
<style type="text/css">
	.st0{fill:#FFFFFF;stroke:#000000;stroke-miterlimit:10;}
	.st1{fill:#FFFFFF;}
	.st2{fill:#BA2027;}
	.st3{fill-rule:evenodd;clip-rule:evenodd;fill:#FFFFFF;}
	.st4{fill:#B42027;}
	.st5{fill:#FF0000;}
	.st6{fill:#010101;}
	.st7{fill:#FD2D56;}
	.st8{fill:none;}
	.st9{fill:#6DEFED;}
	.st10{fill:#FC2C54;}
	.st11{fill:#25F4EE;}
	.st12{fill:#030303;}
	.st13{fill:#040404;}
	.st14{fill:#020202;}
	.st15{fill-rule:evenodd;clip-rule:evenodd;}
	.st16{fill:#242021;}
	.st17{fill:#272324;}
	.st18{fill:#040303;}
	.st19{fill:#242122;}
	.st20{fill:#3B5999;}
	.st21{fill:#FDFDFD;}
	.st22{fill:#E52D27;}
	.st23{fill:#0180C7;}
	.st24{fill:#005CAA;}
	.st25{fill:#ED1D26;}
	.st26{fill:#EE4E2C;}
	.st27{fill:#FEFEFE;}
	.st28{fill:#AA1634;}
	.st29{fill:#268A52;}
	.st30{fill:#AF2070;}
	.st31{fill:#FDFCFD;}
	.st32{fill:#04BE04;}
	.st33{fill:#0290E6;}
	.st34{fill:#35BA8A;}
	.st35{fill:#EF7F18;}
	.st36{fill:#FBB040;}
</style>
<path class="st0" d="M412.5,443.58H31.58c-17.16,0-31.08-13.91-31.08-31.08V31.58C0.5,14.41,14.41,0.5,31.58,0.5H412.5
	c17.16,0,31.08,13.91,31.08,31.08V412.5C443.58,429.66,429.66,443.58,412.5,443.58z"/>
<g>
	<g>
		<path class="st24" d="M347.88,291.35c-0.2-0.06-0.23,0.12-0.3,0.23c-0.91,1.28-1.81,2.57-2.72,3.86
			c-2.04,2.88-4.09,5.76-6.13,8.65c-1.42,2.01-2.82,4.02-4.23,6.03c-1.88,2.67-3.77,5.34-5.66,8.01c-0.42,0.59-0.83,1.19-1.25,1.77
			c-0.17,0.23-0.24,0.46-0.24,0.74c0,6.84,0,13.67-0.01,20.51c0,0.3,0.12,0.52,0.28,0.72c0.45,0.55,0.92,1.08,1.38,1.62
			c0.63,0.74,1.25,1.49,1.88,2.24c-0.42,0.12-20.53,0.18-22.12,0.06c0.36-0.49,0.69-0.95,1.02-1.41c0.69-0.93,1.38-1.87,2.08-2.8
			c0.1-0.13,0.07-0.27,0.07-0.4c0-0.8-0.01-1.6-0.01-2.4c-0.04-4.34-0.1-8.69-0.13-13.03c-0.01-1.67,0.04-3.35,0.06-5.02
			c0-0.25-0.06-0.44-0.22-0.66c-0.68-0.92-1.3-1.87-1.95-2.81c-0.69-0.99-1.4-1.98-2.09-2.98c-0.96-1.39-1.92-2.77-2.88-4.15
			c-1.07-1.53-2.13-3.05-3.2-4.58c-0.78-1.11-1.56-2.21-2.33-3.32c-0.99-1.43-2-2.85-2.99-4.27c-0.93-1.32-1.86-2.64-2.76-3.98
			c-0.48-0.7-1.02-1.35-1.63-1.93c-0.33-0.31-0.74-0.54-1.07-0.99c0.22,0,0.37,0,0.51,0c5.97,0,11.94,0,17.91-0.01
			c0.38,0,0.57,0.15,0.75,0.45c4.03,6.55,8.07,13.09,12.11,19.64c0.13,0.21,0.26,0.42,0.41,0.66c0.49-0.37,0.96-0.69,1.3-1.19
			c2.45-3.65,4.91-7.3,7.37-10.94c0.54-0.8,0.99-1.65,1.19-2.61c0.44-2.09-0.12-3.9-1.58-5.45c-0.14-0.15-0.32-0.27-0.46-0.54
			c0.25,0,0.43,0,0.62,0c5.49,0,10.98,0,16.46,0c0.2,0,0.39-0.01,0.59-0.01C347.88,291.14,347.88,291.24,347.88,291.35z"/>
		<path class="st25" d="M164.11,310.22c0,0.13,0,0.28,0,0.43c0,9.49,0,18.98,0,28.47c0,0.67,0.06,1.31,0.5,1.86
			c0.38,0.49,0.76,0.98,1.14,1.47c0.85,1.11,1.71,2.22,2.56,3.32c0.03,0.04,0.07,0.09,0,0.19c-0.13,0.05-0.3,0.02-0.47,0.02
			c-4.92,0-9.84,0-14.75,0c-0.05,0-0.11,0.01-0.16,0c-0.13-0.03-0.3,0.08-0.37-0.12c-0.05-0.14,0.07-0.22,0.14-0.32
			c0.57-0.86,1.1-1.75,1.69-2.6c0.49-0.7,0.97-1.41,1.35-2.18c0.3-0.6,0.44-1.24,0.44-1.92c-0.01-9.71-0.01-19.41-0.01-29.12
			c0-3.65-0.01-7.3,0.01-10.95c0-0.38-0.08-0.71-0.28-1.03c-0.64-1-1.28-2-1.9-3.01c-0.51-0.83-1.01-1.68-1.51-2.52
			c-0.27-0.45-0.55-0.89-0.86-1.39c0.17-0.01,0.29-0.03,0.42-0.03c5.27,0,10.55,0,15.82-0.01c0.37,0,0.54,0.18,0.73,0.43
			c3.61,4.66,7.23,9.31,10.85,13.97c5.11,6.58,10.23,13.16,15.34,19.75c0.1,0.12,0.16,0.28,0.33,0.34c0.12-0.12,0.06-0.27,0.06-0.4
			c0-8.98,0-17.95,0.01-26.93c0-0.93-0.21-1.79-0.72-2.58c-0.83-1.31-1.73-2.57-2.58-3.87c-0.12-0.18-0.27-0.33-0.32-0.54
			c0.01-0.02,0.02-0.04,0.03-0.05c0.01-0.01,0.02-0.03,0.04-0.03c5.15-0.01,10.3-0.01,15.45-0.02c0.08,0,0.18-0.03,0.27,0.06
			c-0.11,0.4-0.45,0.65-0.68,0.97c-0.99,1.34-2,2.66-3.02,3.97c-0.36,0.46-0.5,0.97-0.51,1.53c-0.01,0.25,0,0.5,0,0.75
			c0,16.17,0,32.34,0,48.51c0,0.23,0.03,0.46-0.04,0.71c-0.67-0.02-1.32-0.16-1.96-0.27c-0.45-0.08-0.9-0.09-1.35-0.21
			c-0.55-0.14-1.12-0.2-1.66-0.36c-1.04-0.29-2.08-0.59-3.07-1.02c-0.89-0.38-1.77-0.79-2.61-1.3c-0.95-0.58-1.85-1.23-2.72-1.93
			c-0.28-0.22-0.55-0.45-0.76-0.75c-0.22-0.32-0.55-0.54-0.83-0.81c-1.29-1.26-2.32-2.74-3.43-4.15c-1.04-1.31-2.06-2.64-3.09-3.96
			c-1.11-1.41-2.21-2.84-3.31-4.26c-0.98-1.27-1.96-2.53-2.95-3.8c-1.11-1.43-2.23-2.87-3.34-4.3c-1.1-1.42-2.2-2.84-3.3-4.26
			c-1.11-1.43-2.23-2.86-3.34-4.3c-0.35-0.46-0.77-0.88-1.03-1.4C164.31,310.23,164.26,310.17,164.11,310.22z"/>
		<path class="st24" d="M302.7,345.81c-8.09,0-16.13,0-24.18,0c-0.03-0.25,0.22-0.25,0.33-0.36c1.08-0.97,1.82-2.13,2.25-3.53
			c0.38-1.25,0.37-2.5,0.11-3.74c-0.21-0.98-0.6-1.92-0.97-2.86c-0.46-1.15-0.87-2.31-1.3-3.47c-0.29-0.79-0.57-1.58-0.85-2.37
			c-0.14-0.38-0.14-0.38-0.62-0.38c-3.78,0-7.56,0-11.33,0c-1.91,0-3.81,0-5.72,0c-0.54,0-0.54,0-0.7,0.5
			c-0.99,3.08-1.99,6.16-2.96,9.25c-0.3,0.95-0.3,1.92-0.14,2.9c0.24,1.47,0.88,2.71,1.96,3.73c0.05,0.05,0.09,0.1,0.19,0.2
			c-5.17,0-10.28,0-15.4,0c-0.01-0.19,0.16-0.28,0.28-0.39c0.44-0.44,0.93-0.83,1.33-1.31c0.48-0.56,0.91-1.17,1.31-1.79
			c0.55-0.84,0.96-1.76,1.27-2.72c0.61-1.85,1.27-3.69,1.91-5.53c0.45-1.31,0.9-2.63,1.36-3.94c0.62-1.79,1.25-3.59,1.86-5.39
			c0.41-1.22,0.83-2.43,1.25-3.64c0.66-1.89,1.31-3.78,1.97-5.67c0.41-1.2,0.82-2.4,1.23-3.59c0.63-1.79,1.24-3.6,1.87-5.39
			c0.45-1.28,0.87-2.57,1.32-3.85c0.41-1.18,0.8-2.38,1.26-3.54c0.5-1.26,0.55-2.55,0.31-3.85c-0.21-1.12-0.75-2.12-1.43-3.04
			c-0.21-0.29-0.46-0.57-0.56-0.94c0.17-0.09,0.33-0.06,0.48-0.06c6.09,0,12.19,0,18.28,0c0.5,0,0.51,0,0.7,0.5
			c0.74,1.98,1.48,3.96,2.22,5.94c0.94,2.51,1.87,5.01,2.8,7.52c0.72,1.93,1.44,3.86,2.16,5.79c1,2.67,2,5.34,2.99,8.02
			c1.14,3.07,2.28,6.13,3.43,9.2c1.21,3.25,2.46,6.49,3.63,9.75c0.66,1.85,1.72,3.43,2.99,4.89c0.84,0.97,1.76,1.86,2.71,2.72
			C302.43,345.48,302.59,345.59,302.7,345.81z M262.39,321.97c4.34,0,8.6,0,12.93,0c-2.21-5.93-4.41-11.81-6.6-17.69
			c-0.04,0-0.08,0.01-0.12,0.01C266.53,310.17,264.47,316.04,262.39,321.97z"/>
		<path class="st24" d="M232.26,345.71c-7.04,0-14,0-20.96,0c-0.07-0.1-0.01-0.16,0.05-0.23c0.56-0.67,1.07-1.39,1.53-2.14
			c0.44-0.71,0.81-1.45,1.07-2.24c0.18-0.52,0.26-1.04,0.26-1.59c-0.01-14.33,0-28.67,0-43c0-1.04-0.39-1.92-1.01-2.74
			c-0.37-0.48-0.77-0.91-1.26-1.27c-0.41-0.3-0.71-0.74-1.13-1.04c-0.09-0.06-0.15-0.14-0.13-0.28c0.15-0.12,0.33-0.06,0.5-0.06
			c8.82-0.07,17.64-0.07,26.46-0.05c3.27,0,6.24,1.01,8.85,2.96c2.87,2.14,4.72,4.97,5.59,8.45c0.3,1.2,0.43,2.41,0.43,3.64
			c-0.01,1.35,0.05,2.71-0.2,4.05c-0.62,3.33-2.17,6.13-4.71,8.38c-1.76,1.55-3.76,2.63-6.01,3.27c-1.34,0.38-2.7,0.55-4.09,0.61
			c-1.96,0.08-3.92,0.11-5.88,0.17c-0.07,0-0.14,0.01-0.21,0c-0.08,0-0.19,0.02-0.2-0.11c-0.01-0.09,0.07-0.1,0.13-0.14
			c0.44-0.27,0.87-0.54,1.3-0.82c1.29-0.84,2.27-1.99,3.06-3.29c0.78-1.27,1.33-2.63,1.75-4.07c0.7-2.38,0.72-4.77,0.27-7.17
			c-0.19-1.02-0.53-2.01-0.9-3c-0.32-0.83-0.76-1.58-1.25-2.3c-0.82-1.2-1.92-2.03-3.33-2.47c-0.54-0.17-1.07-0.2-1.61-0.23
			c-0.57-0.03-1.14-0.02-1.71-0.05c-0.25-0.01-0.36,0.08-0.34,0.33c0.01,0.14,0,0.28,0,0.43c0,13.05,0,26.11,0,39.16
			c-0.19,1.44,0.4,2.62,1.24,3.72c0.69,0.9,1.38,1.8,2.12,2.66C232.05,345.37,232.12,345.51,232.26,345.71z"/>
		<path class="st25" d="M127.48,331.68c0.22-0.81,0.5-1.56,0.78-2.32c0.53-1.45,0.99-2.92,1.53-4.37c0.79-2.12,1.53-4.26,2.29-6.39
			c0.68-1.91,1.39-3.8,2.07-5.7c0.74-2.08,1.46-4.17,2.2-6.26c0.84-2.38,1.69-4.75,2.55-7.12c0.24-0.67,0.5-1.34,0.7-2.03
			c0.16-0.55,0-1.07-0.19-1.59c-0.48-1.28-1.19-2.45-1.77-3.68c-0.17-0.36-0.35-0.72-0.54-1.08c-0.12-0.22-0.04-0.29,0.18-0.29
			c0.11,0,0.21,0,0.32,0c3.83,0,7.66,0,11.49,0c0.66,0,0.65,0,0.47,0.64c-1.02,3.54-2.32,6.99-3.52,10.47c-0.69,2-1.36,4-2.05,6
			c-1.15,3.35-2.29,6.7-3.45,10.04c-1.13,3.28-2.27,6.56-3.4,9.84c-1.15,3.35-2.29,6.69-3.45,10.04c-1.02,2.96-2.05,5.92-3.07,8.88
			c-0.1,0.28-0.17,0.39-0.5,0.37c-0.75-0.06-1.44-0.32-2.16-0.49c-1.14-0.27-2.25-0.63-3.34-1.08c-1.11-0.46-2.22-0.92-3.25-1.55
			c-0.57-0.34-1.16-0.65-1.69-1.05c-0.77-0.57-1.54-1.15-2.26-1.81c-0.68-0.62-1.29-1.3-1.87-2c-0.49-0.59-0.92-1.23-1.27-1.93
			c-0.2-0.41-0.47-0.78-0.65-1.2c-0.53-1.22-1.04-2.44-1.51-3.69c-0.64-1.72-1.3-3.44-1.95-5.16c-0.67-1.75-1.35-3.49-1.99-5.25
			c-0.64-1.76-1.32-3.51-1.98-5.26c-0.55-1.46-1.11-2.92-1.66-4.38c-0.65-1.74-1.31-3.47-1.96-5.21c-0.67-1.77-1.33-3.53-2-5.3
			c-0.65-1.72-1.3-3.44-1.95-5.16c-0.32-0.85-0.58-1.74-0.97-2.56c-0.42-0.88-0.72-1.83-1.3-2.63c-0.13-0.18-0.22-0.36-0.17-0.6
			c0.16-0.09,0.34-0.05,0.52-0.05c5.29,0,10.58,0,15.88,0c0.53,0,0.53,0,0.72,0.54c0.99,2.84,1.98,5.69,2.97,8.53
			c1.07,3.08,2.13,6.16,3.22,9.22c0.83,2.34,1.64,4.68,2.46,7.03c1.06,3.06,2.13,6.12,3.2,9.17c0.68,1.94,1.35,3.89,2.04,5.83
			C127.26,331.31,127.29,331.52,127.48,331.68z"/>
	</g>
	<g>
		<path class="st24" d="M152.69,203.86c3.46,1.71,7.09,1.29,10.98,1.6c0,0,0,0,0,0c-1.01-1.54-2.42-2.71-3.73-3.98
			c-0.19-0.18-0.37-0.36-0.55-0.55c-2.28-2.34-4.68-4.58-6.62-7.23c-4.39-5.99-7.02-12.65-7.78-20.06
			c-0.79-7.79,0.44-15.24,3.94-22.21c4.36-8.69,11-15.1,19.9-19.11c4.54-2.04,9.29-3.11,14.27-3.44c8.2-0.54,15.76,1.46,22.85,5.42
			c2.77,1.54,5.21,3.57,7.58,5.67c0.51,0.45,1.04,0.95,1.18,1.64c0.19,0.91,0.17,1.85-0.76,2.39c-0.89,0.51-1.81,0.45-2.61-0.23
			c-1.53-1.31-3.03-2.65-4.65-3.85c-3.69-2.74-7.78-4.59-12.2-5.76c-3.58-0.95-7.22-1.26-10.91-1.08
			c-5.29,0.25-10.28,1.64-14.95,4.11c-6.15,3.26-11.01,7.89-14.53,13.91c-2.78,4.76-4.42,9.9-4.76,15.42
			c-0.29,4.77,0.11,9.47,1.64,14.06c1.6,4.78,4.02,9.08,7.39,12.79c2.94,3.24,6.05,6.33,9.23,9.34c0.99,0.94,1.87,1.99,2.8,2.99
			c3.23-0.09,6.34-0.78,9.38-1.84c0.23-0.08,0.47-0.17,0.7-0.26c0,0,0,0,0,0c0,0,0,0,0,0c-1.87-1.88-3.8-3.7-5.61-5.64
			c-3.96-4.25-8.6-7.86-12.02-12.61c-2.7-3.74-4.32-7.93-4.89-12.51c-0.83-6.67,0.55-12.86,4.1-18.56c0.32-0.52,0.61-1.07,1.15-1.41
			c0.87-0.54,1.96-0.41,2.68,0.3c0.81,0.8,0.95,1.69,0.29,2.74c-1.07,1.72-2.02,3.48-2.69,5.39c-1.82,5.13-1.9,10.26-0.14,15.43
			c1.35,3.98,3.72,7.25,6.67,10.18c4.83,4.79,9.59,9.64,14.38,14.47c0.07,0.08,0.17,0.13,0.26,0.19c2.28-1.1,4.31-2.58,6.12-4.31
			c3.11-2.96,6.13-6.01,9.19-9.04c0.2-0.2,0.34-0.45,0.51-0.68c0,0,0,0,0,0c0,0,0,0,0,0c-0.48-0.83-1.21-1.44-1.89-2.09
			c-0.1-0.09-0.19-0.19-0.29-0.28c-4.75-4.75-9.5-9.51-14.25-14.26c-1.01-1.01-1.04-2.25-0.08-3.25c0.88-0.93,2.15-0.89,3.25,0.19
			c2.11,2.06,4.19,4.16,6.25,6.26c3.05,3.11,6.21,6.1,9.17,9.29c0.73,0.79,0.81,1.35-0.05,2.01c-0.25,0.19-0.49,0.43-0.46,0.81
			c0.69-0.26,0.97-0.99,1.57-1.35c0.67-1.35,1.96-2.15,2.92-3.24c0.92-1.04,2.05-1.89,2.87-3.02c0,0,0,0,0,0c0,0,0,0,0,0
			c-0.39-1.06-1.31-1.68-2.1-2.39c-0.11-0.1-0.22-0.2-0.33-0.31c-3.18-3.22-6.3-6.51-9.6-9.62c-1.33-1.25-2.56-2.62-3.84-3.94
			c-3.56-3.66-9.5-3.9-13.38-1.12c-5.03,3.6-5.73,9.73-3.03,14.17c1.23,2.02,3.15,3.45,4.76,5.13c2.29,2.38,4.63,4.72,6.94,7.08
			c1.02,1.05,1.03,2.22,0.04,3.25c-0.73,0.76-2.28,0.78-3.13-0.09c-1.91-1.95-3.91-3.81-5.77-5.82c-1.51-1.63-3.2-3.1-4.78-4.68
			c-5.82-5.81-5.82-15.36,0.01-21.19c5.79-5.8,15.24-5.92,21.12-0.18c3.01,2.94,5.9,6,8.85,8.99c2.27,2.3,4.57,4.58,6.86,6.86
			c0.2,0.2,0.46,0.35,0.69,0.52c2.16-1.87,4.27-3.8,6.31-5.81c-1.45-1.21-2.78-2.55-4.1-3.9c-0.79-0.81-1.58-1.62-2.39-2.41
			c-2.59-2.54-5.04-5.2-7.66-7.72c-1.76-1.69-3.33-3.57-5.32-5.03c-3.81-2.79-8.03-4.44-12.78-4.62c-2.97-0.11-5.88,0.13-8.71,1.15
			c-1.44,0.52-2.6-0.04-2.98-1.27c-0.44-1.42,0.15-2.46,1.71-2.93c8.58-2.55,16.65-1.43,24.14,3.49c1.9,1.24,3.53,2.83,5.13,4.45
			c5.27,5.32,10.56,10.61,15.85,15.91c2.06-1.95,4.08-3.94,6-6.03c0,0,0,0,0,0c0,0,0,0,0,0c-1.7-1.75-3.42-3.48-5.09-5.25
			c-1.31-1.39-0.73-3.34,1.09-3.74c0.95-0.21,1.66,0.26,2.29,0.89c1.66,1.64,3.31,3.28,4.97,4.92c1.59-1.58,3.17-3.16,4.76-4.74
			c-0.31-0.35-0.61-0.71-0.94-1.04c-17.21-17.2-34.42-34.4-51.63-51.61c-1.33-1.33-2.87-2.29-4.68-2.78
			c-4.49-1.22-8.4-0.17-11.7,3.11c-5.66,5.64-11.29,11.32-16.96,16.94c-11.46,11.35-22.94,22.67-34.42,34
			c-2.09,2.06-3.25,4.44-3.15,7.49c0.1,3.36,1.02,6.29,3.42,8.7c2.08,2.09,4.17,4.18,6.24,6.28c6.03,6.09,21.07,21.17,27.13,27.23
			L152.69,203.86z"/>
		<path class="st25" d="M174.33,225.49c2.04,0.24,4.08,0.24,6.11-0.12c5.75-1.01,10.47-3.93,14.56-7.93
			c5.69-5.55,11.32-11.18,16.99-16.76c6.43-6.34,12.88-12.67,19.32-19c7.88-7.74,15.81-15.44,23.64-23.23
			c6.02-5.99,12.16-11.85,18.24-17.79c2.83-2.77,5.66-5.53,8.55-8.24c2.97-2.78,7.6-3.27,11.01-1.1c1.55,0.99,2.66,2.51,3.96,3.81
			c10.45,10.42,20.87,20.87,31.3,31.3c4.23,4.23,4.87,9.83,1.6,14.38c-1.1,1.52-2.55,2.74-3.86,4.07
			c-9.98,10.13-19.97,20.24-29.96,30.36c-10.39,10.53-20.78,21.06-31.18,31.58c-3.77,3.81-7.32,7.89-11.38,11.36
			c-10.98,9.38-23.35,11.31-36.79,5.97c-3.41-1.35-6.39-3.43-9.17-5.82c-7.35-6.32-13.81-13.55-20.75-20.29
			c-3.9-3.79-7.68-7.69-11.52-11.54c-0.25-0.25-0.59-0.41-0.89-0.61C174.19,225.76,174.26,225.62,174.33,225.49z"/>
		<path class="st25" d="M191.13,195c-2.83,2.8-5.99,5.16-9.62,6.81c-3.54,1.61-7.25,2.56-11.14,2.97c-2.74,0.29-5.43,0.35-8.14-0.07
			c-3.2-0.49-6.29-1.34-9.23-2.71c-1.2-0.56-2.43-1.07-3.54-1.81c-0.24-0.16-0.47-0.12-0.71,0.01c0.07,0.08,0.12,0.18,0.2,0.25
			c6.71,6.72,13.42,13.44,20.13,20.17c0.28,0.28,0.59,0.52,0.97,0.67c2.53,1.04,5.15,1.53,7.9,1.35c5.82-0.39,10.62-2.99,14.75-6.89
			c4.6-4.35,9.08-8.83,13.57-13.29c9.89-9.8,19.77-19.62,29.64-29.44c6.25-6.22,12.43-12.5,18.72-18.68
			c8.15-8.02,16.38-15.98,24.57-23.96c2.25-2.2,4.93-3.44,8.09-3.63c0.23-0.01,0.52,0.1,0.72-0.32c-2.37-2.35-4.76-4.73-7.16-7.1
			c-4.25-4.2-10.72-4.27-15.07-0.15c-1.86,1.76-3.46,3.76-5.19,5.63c-3.41,3.7-6.63,7.59-10.18,11.16
			c-5.1,5.13-12.78,12.45-17.9,17.55L191.13,195z"/>
	</g>
</g>
</svg>
