<svg width="80" height="80" viewBox="0 0 80 80" fill="none" xmlns="http://www.w3.org/2000/svg">
  <path d="M40 70C40 70 6.66667 53.3333 6.66667 26.6667C6.66862 22.1562 8.0428 17.7587 10.6112 14.0748C13.1797 10.391 16.8236 7.6279 21.0489 6.16327C25.2742 4.69863 29.8453 4.60376 34.1293 5.89099C38.4134 7.17822 42.1642 9.78079 44.8667 13.3333C47.5691 9.78079 51.3199 7.17822 55.604 5.89099C59.888 4.60376 64.4591 4.69863 68.6844 6.16327C72.9097 7.6279 76.5536 10.391 79.1221 14.0748C81.6905 17.7587 83.0647 22.1562 83.0667 26.6667C83.0667 53.3333 49.7333 70 40 70Z" stroke="#CCCCCC" stroke-width="3" stroke-linecap="round" stroke-linejoin="round"/>
  <path d="M40 50C40 50 28 42 28 30C28.0007 27.8795 28.7021 25.8234 30.0008 24.1625C31.2996 22.5016 33.1169 21.3312 35.1667 20.8333C37.2166 20.3355 39.3832 20.54 41.3033 21.4125C43.2233 22.285 44.7713 23.7717 45.6667 25.6667C46.562 23.7717 48.11 22.285 50.0301 21.4125C51.9501 20.54 54.1168 20.3355 56.1666 20.8333C58.2165 21.3312 60.0338 22.5016 61.3325 24.1625C62.6313 25.8234 63.3326 27.8795 63.3333 30C63.3333 42 51.3333 50 40 50Z" stroke="#CCCCCC" stroke-width="3" stroke-linecap="round" stroke-linejoin="round"/>
</svg> 