<svg width="24" height="22" viewBox="0 0 24 22" fill="none" xmlns="http://www.w3.org/2000/svg">
<path d="M20.5286 3.4961C20.0178 2.98511 19.4114 2.57975 18.7439 2.30319C18.0765 2.02662 17.3611 1.88428 16.6386 1.88428C15.9161 1.88428 15.2007 2.02662 14.5332 2.30319C13.8658 2.57975 13.2594 2.98511 12.7486 3.4961L11.6886 4.5561L10.6286 3.4961C9.5969 2.46441 8.19763 1.88481 6.7386 1.88481C5.27956 1.88481 3.88029 2.46441 2.8486 3.4961C1.8169 4.5278 1.2373 5.92707 1.2373 7.3861C1.2373 8.84514 1.8169 10.2444 2.8486 11.2761L3.9086 12.3361L11.6886 20.1161L19.4686 12.3361L20.5286 11.2761C21.0396 10.7653 21.4449 10.1589 21.7215 9.49146C21.9981 8.824 22.1404 8.10859 22.1404 7.3861C22.1404 6.66362 21.9981 5.94821 21.7215 5.28075C21.4449 4.61329 21.0396 4.00686 20.5286 3.4961Z" stroke="white" stroke-width="2" stroke-linecap="round" stroke-linejoin="round"/>
</svg>
