<svg width="46" height="47" viewBox="0 0 46 47" fill="none" xmlns="http://www.w3.org/2000/svg">
<circle cx="23" cy="23.5" r="18.5" stroke="#D9D9D9"/>
<path d="M30.5969 17.8031C30.1839 17.39 29.6936 17.0623 29.154 16.8387C28.6143 16.6151 28.0359 16.5 27.4518 16.5C26.8677 16.5 26.2893 16.6151 25.7497 16.8387C25.21 17.0623 24.7197 17.39 24.3068 17.8031L23.4498 18.6601L22.5928 17.8031C21.7587 16.969 20.6274 16.5004 19.4477 16.5004C18.2681 16.5004 17.1368 16.969 16.3027 17.8031C15.4686 18.6373 15 19.7686 15 20.9482C15 22.1278 15.4686 23.2591 16.3027 24.0932L17.1597 24.9502L23.4498 31.2403L29.7399 24.9502L30.5969 24.0932C31.01 23.6803 31.3377 23.19 31.5613 22.6503C31.7849 22.1107 31.9 21.5323 31.9 20.9482C31.9 20.3641 31.7849 19.7857 31.5613 19.246C31.3377 18.7064 31.01 18.2161 30.5969 17.8031Z" stroke="black" stroke-width="2" stroke-linecap="round" stroke-linejoin="round"/>
</svg>
