<svg width="18" height="17" viewBox="0 0 18 17" fill="none" xmlns="http://www.w3.org/2000/svg">
<path fill-rule="evenodd" clip-rule="evenodd" d="M7.56464 0.468834C7.68502 0.197988 7.95361 0.0234375 8.25 0.0234375C9.04565 0.0234375 9.80871 0.339508 10.3713 0.902117C10.9339 1.46473 11.25 2.22779 11.25 3.02344V5.27344H14.7412C15.0657 5.27043 15.3871 5.33769 15.6833 5.47061C15.9808 5.60416 16.2458 5.80081 16.4598 6.04694C16.6739 6.29307 16.8318 6.58278 16.9228 6.89602C17.0137 7.20925 17.0355 7.53851 16.9865 7.86099L15.9515 14.6109C15.9515 14.6111 15.9516 14.6107 15.9515 14.6109C15.87 15.1472 15.5975 15.6366 15.1842 15.9879C14.7719 16.3384 14.2471 16.5285 13.7061 16.5234H3C2.40326 16.5234 1.83097 16.2864 1.40901 15.8644C0.987053 15.4425 0.75 14.8702 0.75 14.2734V9.02344C0.75 8.4267 0.987053 7.8544 1.40901 7.43245C1.83097 7.01049 2.40326 6.77344 3 6.77344H4.7626L7.56464 0.468834ZM4.5 8.27344H3C2.80109 8.27344 2.61032 8.35246 2.46967 8.49311C2.32902 8.63376 2.25 8.82452 2.25 9.02344V14.2734C2.25 14.4724 2.32902 14.6631 2.46967 14.8038C2.61032 14.9444 2.80109 15.0234 3 15.0234H4.5V8.27344ZM6 15.0234H13.7185C13.8994 15.0255 14.0749 14.9621 14.2127 14.845C14.3505 14.7278 14.4414 14.5648 14.4685 14.386L15.5035 7.63589C15.5035 7.63599 15.5035 7.63579 15.5035 7.63589C15.5197 7.52849 15.5125 7.41855 15.4822 7.31423C15.4519 7.20982 15.3993 7.11325 15.3279 7.03121C15.2566 6.94916 15.1683 6.88361 15.0691 6.8391C14.9699 6.79458 14.8622 6.77216 14.7535 6.77339L14.745 6.77349L10.5 6.77344C10.0858 6.77344 9.75 6.43765 9.75 6.02344V3.02344C9.75 2.62561 9.59196 2.24408 9.31066 1.96278C9.13978 1.79189 8.93191 1.6665 8.70587 1.59439L6 7.6826V15.0234Z" fill="#707070"/>
</svg>
