<svg width="38" height="39" viewBox="0 0 38 39" fill="none" xmlns="http://www.w3.org/2000/svg">
<circle cx="19" cy="19.5" r="18.5" stroke="#D9D9D9"/>
<path d="M16 21L22 24M22 15L16 18M25 28.5C23.3431 28.5 22 27.1569 22 25.5C22 23.8431 23.3431 22.5 25 22.5C26.6569 22.5 28 23.8431 28 25.5C28 27.1569 26.6569 28.5 25 28.5ZM13 22.5C11.3431 22.5 10 21.1569 10 19.5C10 17.8431 11.3431 16.5 13 16.5C14.6569 16.5 16 17.8431 16 19.5C16 21.1569 14.6569 22.5 13 22.5ZM25 16.5C23.3431 16.5 22 15.1569 22 13.5C22 11.8431 23.3431 10.5 25 10.5C26.6569 10.5 28 11.8431 28 13.5C28 15.1569 26.6569 16.5 25 16.5Z" stroke="black" stroke-width="2" stroke-linecap="round" stroke-linejoin="round"/>
</svg>
