<svg width="20" height="20" viewBox="0 0 20 20" fill="none" xmlns="http://www.w3.org/2000/svg">
<g clip-path="url(#clip0_1588_3184)">
<path d="M19.6334 7.27467C19.5464 7.0322 19.3871 6.82227 19.1769 6.67324C18.9668 6.52421 18.716 6.44327 18.4584 6.44134H13.3834C13.2978 6.44131 13.2142 6.41489 13.1441 6.36568C13.074 6.31647 13.0208 6.24687 12.9917 6.16634L11.175 0.999675C11.0804 0.765651 10.9179 0.565253 10.7086 0.424195C10.4992 0.283137 10.2525 0.207855 10 0.208008C9.74329 0.209237 9.49322 0.290034 9.28429 0.439275C9.07535 0.588515 8.91782 0.798859 8.83338 1.04134L7.00838 6.18301C6.97927 6.26354 6.92605 6.33314 6.85597 6.38235C6.78589 6.43155 6.70235 6.45797 6.61672 6.45801H1.54172C1.28382 6.45873 1.03247 6.53921 0.822105 6.6884C0.611745 6.83759 0.45268 7.0482 0.366716 7.29134C0.284049 7.5317 0.275606 7.79137 0.342484 8.03659C0.409362 8.28181 0.548468 8.50123 0.741716 8.66634L5.05838 12.2497C5.12324 12.3026 5.17065 12.3738 5.19444 12.4541C5.21822 12.5344 5.21727 12.62 5.19172 12.6997L3.37505 18.1413C3.28949 18.3933 3.28657 18.666 3.3667 18.9197C3.44684 19.1735 3.60585 19.395 3.8206 19.5521C4.03535 19.7092 4.29464 19.7937 4.56072 19.7933C4.82681 19.7928 5.08582 19.7075 5.30005 19.5497L9.75005 16.283C9.82088 16.2296 9.90717 16.2007 9.99588 16.2007C10.0846 16.2007 10.1709 16.2296 10.2417 16.283L14.7 19.5497C14.9126 19.7265 15.1779 19.8279 15.4542 19.838C15.7306 19.848 16.0025 19.7661 16.2273 19.6051C16.4521 19.4441 16.6173 19.213 16.6968 18.9482C16.7763 18.6833 16.7657 18.3996 16.6667 18.1413L14.85 12.6997C14.8245 12.62 14.8235 12.5344 14.8473 12.4541C14.8711 12.3738 14.9185 12.3026 14.9834 12.2497L19.3084 8.65801C19.4956 8.48702 19.6268 8.26345 19.6848 8.01661C19.7428 7.76976 19.7249 7.51115 19.6334 7.27467Z" fill="#FFC515"/>
</g>
<defs>
<clipPath id="clip0_1588_3184">
<rect width="20" height="20" fill="white"/>
</clipPath>
</defs>
</svg>
