<svg width="21" height="20" viewBox="0 0 21 20" fill="none" xmlns="http://www.w3.org/2000/svg">
<path d="M20 8.1C20.1 7.6 19.7 7 19.2 7L13.5 6.2L10.9 1C10.8 0.8 10.7 0.7 10.5 0.6C10 0.3 9.4 0.5 9.1 1L6.6 6.2L0.9 7C0.6 7 0.4 7.1 0.3 7.3C-0.1 7.7 -0.1 8.3 0.3 8.7L4.4 12.7L3.4 18.4C3.4 18.6 3.4 18.8 3.5 19C3.8 19.5 4.4 19.7 4.9 19.4L10 16.7L15.1 19.4C15.2 19.5 15.4 19.5 15.6 19.5C15.7 19.5 15.7 19.5 15.8 19.5C16.3 19.4 16.7 18.9 16.6 18.3L15.6 12.6L19.7 8.6C19.9 8.5 20 8.3 20 8.1ZM13.8 11.6C13.6 11.8 13.5 12.2 13.5 12.5L14.2 16.7L10.4 14.7C10.3 14.6 10.1 14.6 9.9 14.6V3.7L11.8 7.5C11.9 7.8 12.2 8 12.6 8L16.8 8.6L13.8 11.6Z" fill="#FFC515"/>
</svg>
