<svg width="20" height="20" viewBox="0 0 20 20" fill="none" xmlns="http://www.w3.org/2000/svg">
<path d="M19.9189 8.12653C19.9992 7.57971 19.621 7.07141 19.0742 6.99115L13.4229 6.16498L10.8975 1.01849C10.8065 0.861511 10.676 0.73114 10.5189 0.640381C10.0229 0.353699 9.38831 0.523376 9.10156 1.01947L6.57715 6.16498L0.925781 6.99121C0.709717 7.02289 0.51001 7.12445 0.356995 7.28027C-0.0301515 7.67462 -0.0242311 8.30817 0.370117 8.69531L4.46289 12.708L3.49707 18.3721C3.48792 18.4263 3.48322 18.4811 3.48309 18.5362C3.48157 19.0896 3.92896 19.5395 4.48242 19.541C4.64557 19.5408 4.80621 19.5005 4.9502 19.4238L10 16.7539L15.0488 19.4229C15.244 19.5264 15.4678 19.5625 15.6856 19.5254C16.2298 19.4326 16.5957 18.9163 16.5029 18.3721L15.5371 12.708L19.6309 8.69428C19.7861 8.54144 19.8873 8.3421 19.9189 8.12653ZM14.6504 12.1767C14.5333 12.2916 14.4797 12.4564 14.5068 12.6181L15.5166 18.539L10.2334 15.746C10.0871 15.6698 9.9129 15.6698 9.7666 15.746L4.4834 18.54L5.4931 12.6182C5.52026 12.4564 5.46667 12.2916 5.34955 12.1768L1.07025 7.98145L6.98236 7.11719C7.14563 7.09277 7.2865 6.98987 7.35938 6.8418L10 1.46002L12.6406 6.84174C12.7134 6.98981 12.8544 7.09271 13.0176 7.11713L18.9307 7.98041L14.6504 12.1767Z" fill="#FFC515"/>
</svg>
