<svg width="90" height="86" viewBox="0 0 90 86" fill="none" xmlns="http://www.w3.org/2000/svg">
<path d="M42.792 2.22266C43.732 0.453218 46.268 0.453218 47.208 2.22266L59.2129 24.8252C59.7188 25.7777 60.6351 26.444 61.6973 26.6309L86.9033 31.0635C88.8768 31.4107 89.6601 33.8219 88.2676 35.2627L70.4814 53.665C69.732 54.4405 69.3816 55.518 69.5322 56.5859L73.1055 81.9277C73.3851 83.9118 71.3338 85.4024 69.5332 84.5234L46.5361 73.2939C45.567 72.8207 44.433 72.8207 43.4639 73.2939L20.4668 84.5234C18.6662 85.4024 16.6149 83.9118 16.8945 81.9277L20.4678 56.5859C20.6184 55.518 20.268 54.4405 19.5186 53.665L1.73242 35.2627C0.339901 33.8219 1.12324 31.4107 3.09668 31.0635L28.3027 26.6309C29.3649 26.444 30.2812 25.7777 30.7871 24.8252L42.792 2.22266Z" stroke="#B8B8B8"/>
</svg>
