<svg width="90" height="86" viewBox="0 0 90 86" fill="none" xmlns="http://www.w3.org/2000/svg">
<path d="M42.3505 1.98851C43.4785 -0.135231 46.5215 -0.135234 47.6495 1.98851L59.6541 24.5909C60.0877 25.4073 60.8735 25.9783 61.784 26.1384L86.9897 30.5709C89.3581 30.9873 90.2985 33.8815 88.6272 35.6105L70.8407 54.012C70.1982 54.6767 69.898 55.6005 70.0271 56.5159L73.6006 81.8577C73.9363 84.2389 71.4745 86.0275 69.3136 84.9724L46.3164 73.7428C45.4857 73.3371 44.5143 73.3371 43.6836 73.7428L20.6864 84.9724C18.5256 86.0275 16.0637 84.2389 16.3994 81.8577L19.9729 56.5159C20.102 55.6005 19.8018 54.6767 19.1593 54.012L1.37279 35.6105C-0.298449 33.8815 0.641906 30.9873 3.01026 30.5709L28.216 26.1384C29.1265 25.9783 29.9123 25.4073 30.3459 24.5909L42.3505 1.98851Z" fill="#FAD500"/>
</svg>
